<svg id="Layer_5" enable-background="new 0 0 64 64" height="512" viewBox="0 0 64 64" width="512" xmlns="http://www.w3.org/2000/svg"><path d="m14 5h2v2h-2z"/><path d="m18 5h6v2h-6z"/><path d="m14 57h10v2h-10z"/><path d="m29 49h-2v-8h2v-2.454l-7.588-6.64c-1.335-1.17-3.489-1.169-4.823 0l-7.589 6.64v2.454h2v8h-2v2h20zm-4 0h-2v-8h2zm-4-8v8h-4v-8zm-3.093-7.589c.604-.529 1.582-.53 2.187 0l6.387 5.589h-14.962zm-4.907 7.589h2v8h-2z"/><path d="m58 7h-21v-1c0-2.757-2.243-5-5-5h-26c-2.757 0-5 2.243-5 5v52c0 2.757 2.243 5 5 5h26c2.757 0 5-2.243 5-5v-25h4v5.551c0 1.35 1.099 2.449 2.449 2.449.601 0 1.178-.22 1.627-.619l8.304-7.381h4.62c2.757 0 5-2.243 5-5v-16c0-2.757-2.243-5-5-5zm3 5v16c0 .63-.197 1.213-.53 1.697l-9.984-7.048c.08-.083.165-.161.242-.248l10.058-11.495c.134.34.214.707.214 1.094zm-1.547-2.608-10.23 11.692c-1.065 1.218-2.604 1.916-4.223 1.916s-3.158-.698-4.223-1.917l-10.23-11.691c.432-.242.923-.392 1.453-.392h26c.53 0 1.021.15 1.453.392zm-32.453 15.608h-16v-10h16zm0-13v1h-18v14h18v1c0 2.414 1.721 4.434 4 4.899v20.101h-24v-42h20.101c-.066.323-.101.658-.101 1zm2.53 17.696c-.333-.483-.53-1.066-.53-1.696v-16c0-.387.08-.755.214-1.095l10.058 11.495c.077.088.162.165.242.248zm5.47 28.304c0 1.654-1.346 3-3 3h-26c-1.654 0-3-1.346-3-3v-52c0-1.654 1.346-3 3-3h26c1.654 0 3 1.346 3 3v1h-3c-1.627 0-3.061.793-3.974 2h-21.026c-1.103 0-2 .897-2 2v42c0 1.103.897 2 2 2h24c1.103 0 2-.897 2-2v-20h2zm17.62-27-8.873 7.887c-.267.238-.747.021-.747-.336v-7.551h-11c-.247 0-.484-.039-.714-.095l9.854-6.956c1.157.681 2.488 1.051 3.86 1.051s2.703-.37 3.86-1.051l9.854 6.956c-.23.056-.467.095-.714.095z"/><path d="m13 17h12v2h-12z"/><path d="m13 21h12v2h-12z"/><path d="m44 11h2v2h-2z"/><path d="m48 11h2v2h-2z"/><path d="m40 11h2v2h-2z"/><path d="m57 20h2v2h-2z"/><path d="m57 24h2v2h-2z"/><path d="m31 20h2v2h-2z"/><path d="m31 24h2v2h-2z"/></svg>